HIERARCHY
ROOT Hips
{
  OFFSET 0 89.5177 0.535
  CHANNELS 6 Xposition Yposition Zposition Zrotation Xrotation Yrotation
  JOINT Spine
  {
    OFFSET 12.0259 -0.162855 1.69034e-005
    CHANNELS 3 Zrotation Xrotation Yrotation
    JOINT Spine1
    {
      OFFSET 15.3169 -0.0121922 0
      CHANNELS 3 Zrotation Xrotation Yrotation
      JOINT Spine2
      {
        OFFSET 15.3176 -0.0121908 0
        CHANNELS 3 Zrotation Xrotation Yrotation
        JOINT Neck
        {
          OFFSET 19.9142 1.56338 0
          CHANNELS 3 Zrotation Xrotation Yrotation
          JOINT Head
          {
            OFFSET 6.92651 0 0
            CHANNELS 3 Zrotation Xrotation Yrotation
            End Site
            {
              OFFSET 20.7666 0 0
            }
          }
          JOINT LeftShoulder
          {
            OFFSET -6.20654 0.708824 7.28219
            CHANNELS 3 Zrotation Xrotation Yrotation
            JOINT LeftArm
            {
              OFFSET 14.108 0 -1.52588e-005
              CHANNELS 3 Zrotation Xrotation Yrotation
              JOINT LeftForeArm
              {
                OFFSET 28.5802 0 0
                CHANNELS 3 Zrotation Xrotation Yrotation
                JOINT LeftHand
                {
                  OFFSET 27.092 0 0
                  CHANNELS 3 Zrotation Xrotation Yrotation
                  End Site
                  {
                    OFFSET 9.55928 -0.186424 0.145352
                  }
                }
              }
            }
          }
          JOINT RightShoulder
          {
            OFFSET -6.20654 0.708866 -7.28218
            CHANNELS 3 Zrotation Xrotation Yrotation
            JOINT RightArm
            {
              OFFSET 14.108 0 1.52588e-005
              CHANNELS 3 Zrotation Xrotation Yrotation
              JOINT RightForeArm
              {
                OFFSET 28.5802 0 0
                CHANNELS 3 Zrotation Xrotation Yrotation
                JOINT RightHand
                {
                  OFFSET 27.092 0 0
                  CHANNELS 3 Zrotation Xrotation Yrotation
                  End Site
                  {
                    OFFSET 9.55929 -0.186417 -0.145354
                  }
                }
              }
            }
          }
        }
      }
    }
  }
  JOINT LeftUpLeg
  {
    OFFSET 0.005 -0.535 8.837
    CHANNELS 3 Zrotation Xrotation Yrotation
    JOINT LeftLeg
    {
      OFFSET 39.9035 0 0
      CHANNELS 3 Zrotation Xrotation Yrotation
      JOINT LeftFoot
      {
        OFFSET 39.6689 0 0
        CHANNELS 3 Zrotation Xrotation Yrotation
        JOINT LeftToe
        {
          OFFSET 10.1624 13.6296 0
          CHANNELS 3 Zrotation Xrotation Yrotation
          End Site
          {
            OFFSET 8.38147 0 0
          }
        }
      }
    }
  }
  JOINT RightUpLeg
  {
    OFFSET 0.005 -0.535 -8.837
    CHANNELS 3 Zrotation Xrotation Yrotation
    JOINT RightLeg
    {
      OFFSET 39.9035 0 0
      CHANNELS 3 Zrotation Xrotation Yrotation
      JOINT RightFoot
      {
        OFFSET 39.6689 0 0
        CHANNELS 3 Zrotation Xrotation Yrotation
        JOINT RightToe
        {
          OFFSET 10.1624 13.6296 0
          CHANNELS 3 Zrotation Xrotation Yrotation
          End Site
          {
            OFFSET 8.38147 0 0
          }
        }
      }
    }
  }
}
MOTION
Frames:	6
Frame Time:	0.0333333
408.019 87.7107 -123.248 -97.4097 -22.3674 -177.203 1.92672 -1.63786 0.937265 3.88232 -3.24256 1.93042 3.88232 -3.24256 1.93041 -8.30688e-012 -9.0191e-006 -5.27751e-005 13.3115 -5.50461 0.878589 -174.243 -20.5662 -73.9857 -43.1075 1.94819 62.6275 -34.615 6.36111e-015 -3.18055e-015 -24.0707 -59.6736 -27.8866 -175.079 14.3477 70.8396 -40.3999 7.107 -50.0601 -18.5023 6.36111e-015 7.95139e-016 -66.1907 68.6777 69.4122 -21.7159 13.8585 -175.72 -40.972 3.18055e-015 6.36111e-015 10.5553 4.24673 -5.19218 90 -3.97569e-015 6.36111e-015 -22.6109 -17.4734 168.712 -29.2121 0 3.97569e-016 16.0061 1.12065 0.972334 90 1.21329e-020 -1.98785e-016 
408.65 87.7163 -123.383 -97.6236 -23.1554 -177.288 1.9125 -1.64687 0.948891 3.85438 -3.26042 1.9536 3.85438 -3.26042 1.95359 -8.31245e-012 -9.0191e-006 -5.27751e-005 13.0182 -5.68067 0.792947 -174.297 -20.5088 -74.0909 -43.1632 2.28897 62.6807 -34.6798 -4.77083e-015 1.59028e-015 -24.1016 -59.7336 -27.9241 -175.094 14.2875 70.821 -39.3776 7.09848 -49.6017 -19.0779 -9.54166e-015 -7.95139e-016 -66.8701 68.5057 70.1493 -20.8676 13.6819 -176.396 -35.2364 3.18055e-015 3.97569e-015 10.7376 5.03568 -5.03134 90 7.95139e-016 -0 -22.2371 -17.965 168.564 -29.1081 3.97569e-016 -0 16.5114 1.41505 1.10268 90 3.63986e-020 -0 
409.28 87.7051 -123.559 -97.8185 -24.0206 -177.539 1.88851 -1.67229 0.958754 3.80715 -3.31134 1.97353 3.80715 -3.31134 1.97352 -8.31464e-012 -9.0191e-006 -5.27751e-005 12.8372 -5.96768 0.924391 -174.378 -20.3522 -74.195 -43.0915 2.68163 62.7322 -34.5719 -1.59028e-015 3.18055e-015 -23.9489 -59.731 -27.7634 -175.093 14.2343 70.7549 -38.572 6.81354 -49.2305 -19.1995 0 -7.95139e-016 -67.2507 68.3102 70.5657 -19.8159 13.3754 -176.894 -28.5975 -3.18055e-015 7.95139e-016 9.70552 5.80673 -5.07553 90 0 -3.18055e-015 -21.6503 -18.2727 168.63 -28.8981 -7.95139e-016 -0 16.988 1.96154 1.2829 90 -1.21329e-020 -3.97569e-016 
409.92 87.6784 -123.811 -98.0431 -24.7788 -177.871 1.85821 -1.69113 0.953911 3.74675 -3.34971 1.96361 3.74675 -3.34971 1.96361 -8.30659e-012 -9.0191e-006 -5.27751e-005 12.4749 -6.40512 1.17139 -174.372 -20.317 -74.1564 -43.0923 2.95835 62.6563 -34.1987 3.18055e-015 -6.36111e-015 -23.9448 -59.6746 -27.7547 -175.107 14.1691 70.7231 -37.9118 6.56068 -49.0098 -18.7153 0 -3.18055e-015 -67.3098 68.0728 70.6359 -18.5023 13.2465 -177.259 -21.1506 -3.18055e-015 -0 7.22647 6.32147 -5.25099 90 1.98785e-016 3.18055e-015 -21.0455 -18.6213 168.74 -28.644 0 -0 17.439 2.39902 1.50656 90 1.21329e-020 -0 
410.59 87.6207 -124.147 -98.2412 -25.4219 -178.307 1.82661 -1.70613 0.946807 3.6836 -3.38047 1.94899 3.6836 -3.38047 1.94898 -8.30559e-012 -9.0191e-006 -5.27751e-005 11.8983 -6.97051 1.44039 -174.372 -20.2535 -74.1097 -42.5417 2.9321 62.7299 -33.608 -1.59028e-015 -0 -23.7579 -59.5622 -27.5492 -175.138 14.0806 70.7271 -37.2883 6.32767 -48.9868 -17.8504 -3.18055e-015 7.95139e-016 -67.0945 67.8543 70.4083 -17.7678 13.5599 -177.084 -14.84 -6.36111e-015 -1.98785e-016 4.22833 6.67104 -7.18931 90 -5.96354e-016 6.36111e-015 -20.3732 -19.0871 168.923 -28.3852 -1.59028e-015 -0 17.8987 2.67654 1.77679 90 -1.21329e-020 -0 
411.28 87.5465 -124.566 -98.3965 -25.8786 -178.843 1.78964 -1.70207 0.937071 3.60925 -3.37332 1.92829 3.60925 -3.37332 1.92828 -8.30678e-012 -9.0191e-006 -5.27751e-005 11.3398 -7.66098 1.70021 -174.348 -20.2108 -74.015 -41.793 2.81125 62.8398 -32.8744 1.59028e-015 -3.18055e-015 -23.4994 -59.3297 -27.2585 -175.155 13.9806 70.6662 -36.7706 5.86362 -49.016 -16.9117 -3.18055e-015 1.54058e-015 -66.6496 67.7249 69.9288 -20.5925 14.3199 -176.052 -15.9955 -3.18055e-015 3.97569e-016 4.37879 7.11592 -7.17002 90 -1.98785e-016 -3.18055e-015 -19.4715 -19.2614 169.319 -28.0048 -2.38542e-015 -3.97569e-016 18.3131 3.08621 2.09478 90 0 3.97569e-016 
